<mxfile host="app.diagrams.net" modified="2023-12-05T13:01:31.384Z" agent="Mozilla/5.0 (X11; Linux x86_64) AppleWebKit/537.36 (KHTML, like Gecko) Chrome/119.0.0.0 Safari/537.36" version="22.1.5" etag="09qT86IwvL7v2OSgEhLq" type="github">
  <diagram name="Страница — 1" id="81GTjWGgHhmiQmvfE40b">
    <mxGraphModel>
      <root>
        <mxCell id="0" />
        <mxCell id="1" parent="0" />
      </root>
    </mxGraphModel>
  </diagram>
</mxfile>
